# xmcd
#
# Track frame offsets:
#	150
#	15634
#	28172
#	45425
#	56701
#	73129
#	91391
#	101987
#	113517
#	125630
#	139415
#	153637
#
# Disc length: 2220 seconds
#
# Revision: 0
# Processed by: cddbd v1.5.2PL0 Copyright (c) Steve Scherf et al.
# Submitted via: dBpowerAMP V4.0
#
DISCID=ac08aa0c
DTITLE=Nelson César - Sertanejo Clássico
DYEAR=2008
DGENRE=Country
TTITLE0=Tocando em Frente
TTITLE1=Chalana
TTITLE2=Caminheiro
TTITLE3=Mercedita
TTITLE4=Rumo a Goiânia
TTITLE5=Couro de Boi
TTITLE6=Pagode em Brasília
TTITLE7=Chora Vióla
TTITLE8=Coitelinho
TTITLE9=Tristeza do Jéca
TTITLE10=Menino da Porteira
TTITLE11=Saudade da Minha Terra
EXTD=Voz e Violão - Ao Vivo
EXTT0=
EXTT1=
EXTT2=
EXTT3=
EXTT4=
EXTT5=
EXTT6=
EXTT7=
EXTT8=
EXTT9=
EXTT10=
EXTT11=
PLAYORDER=
